<?xml version="1.0" encoding="UTF-8"?>
<svg id="Capa_2" data-name="Capa 2" xmlns="http://www.w3.org/2000/svg" viewBox="0 0 222.11 222.11">
  <defs>
    <style>
      .cls-1 {
        fill: #ec6944;
      }

      .cls-2 {
        fill: #f7f7f6;
      }

      .cls-3 {
        fill: none;
        stroke: #1b1e26;
        stroke-miterlimit: 10;
        stroke-width: 2px;
      }

      .cls-4 {
        fill: #1a1d26;
      }
    </style>
  </defs>
  <g id="Pag_1" data-name="Pag 1">
    <rect class="cls-2" width="222.11" height="222.11" rx="13.94" ry="13.94"/>
    <g>
      <g>
        <path class="cls-4" d="M65.75,92.15v-8.83c0-19.71,10.44-27.95,26.18-27.95,2.79,0,6.18.15,9.27.74v15.3h-6.32c-9.12,0-11.33,4.71-11.33,11.92v8.83h17.36v15h-17.36v57.66h-17.8v-57.66h-10.44v-15h10.44Z"/>
        <path class="cls-4" d="M123.85,142.75c.15,6.33,4.85,10.3,13.09,10.3s12.94-3.38,12.94-8.68c0-3.68-1.91-6.33-8.38-7.8l-13.09-3.09c-13.09-2.94-19.42-9.12-19.42-20.74,0-14.27,12.06-22.8,28.83-22.8s27.36,9.41,27.51,23.54h-17.06c-.15-6.18-4.27-10.15-11.18-10.15s-11.18,3.24-11.18,8.68c0,4.12,3.24,6.77,9.41,8.24l13.09,3.09c12.21,2.79,18.39,8.38,18.39,19.56,0,14.71-12.5,23.83-30.45,23.83s-29.57-9.71-29.57-23.98h17.06Z"/>
      </g>
      <path class="cls-1" d="M162.46,47.59c0-6.47,5.44-11.77,11.91-11.77s11.92,5.29,11.92,11.77-5.44,11.62-11.92,11.62-11.91-5.29-11.91-11.62Z"/>
      <rect class="cls-3" x="15.82" y="15.82" width="190.47" height="190.47" rx="30.89" ry="30.89"/>
    </g>
  </g>
</svg>