<?xml version="1.0" encoding="UTF-8"?>
<svg id="Capa_2" data-name="Capa 2" xmlns="http://www.w3.org/2000/svg" viewBox="0 0 748.53 111.35">
  <defs>
    <style>
      .cls-1 {
        fill: #ec6944;
      }

      .cls-2 {
        fill: #1a1d26;
      }
    </style>
  </defs>
  <g id="Pag_1" data-name="Pag 1">
    <g>
      <path class="cls-2" d="M10.44,36.77v-8.83C10.44,8.24,20.89,0,36.63,0c2.79,0,6.18.15,9.27.74v15.3h-6.32c-9.12,0-11.33,4.71-11.33,11.92v8.83h17.36v15h-17.36v57.66H10.44v-57.66H0v-15h10.44Z"/>
      <path class="cls-2" d="M51.92,88.7c0-13.39,9.71-21.77,26.92-23.09l21.77-1.62v-1.62c0-9.86-5.88-13.83-15-13.83-10.59,0-16.47,4.41-16.47,12.06h-15.3c0-15.74,12.94-26.04,32.66-26.04s31.63,10.59,31.63,30.74v44.13h-15.74l-1.32-10.74c-3.09,7.5-12.94,12.65-24.27,12.65-15.45,0-24.86-8.97-24.86-22.65ZM100.76,80.02v-3.82l-15.15,1.18c-11.18,1.03-15.44,4.71-15.44,10.59,0,6.62,4.41,9.85,12.5,9.85,11.03,0,18.09-6.62,18.09-17.8Z"/>
      <path class="cls-2" d="M167.83,34.57c19.86,0,33.39,11.03,35.3,28.54h-17.95c-2.06-8.24-8.09-12.5-16.62-12.5-11.47,0-19.12,8.68-19.12,22.36s7.06,22.21,18.53,22.21c8.97,0,15.3-4.41,17.21-12.36h18.09c-2.21,16.92-16.33,28.54-35.3,28.54-22.06,0-36.48-15.3-36.48-38.39s14.86-38.39,36.33-38.39Z"/>
      <path class="cls-2" d="M283.88,36.77v72.67h-16.62l-1.32-9.71c-4.41,6.91-13.83,11.62-23.54,11.62-16.77,0-26.62-11.33-26.62-29.12v-45.45h17.95v39.13c0,13.83,5.44,19.42,15.44,19.42,11.33,0,16.77-6.62,16.77-20.45v-38.1h17.95Z"/>
      <path class="cls-1" d="M302.56,99.58c0-6.47,5.44-11.77,11.92-11.77s11.91,5.3,11.91,11.77-5.44,11.62-11.91,11.62-11.92-5.3-11.92-11.62Z"/>
      <path class="cls-2" d="M356.69,87.37c.15,6.33,4.85,10.3,13.09,10.3s12.94-3.38,12.94-8.68c0-3.68-1.91-6.33-8.38-7.8l-13.09-3.09c-13.09-2.94-19.42-9.12-19.42-20.74,0-14.27,12.06-22.8,28.83-22.8s27.36,9.41,27.51,23.54h-17.06c-.15-6.18-4.27-10.15-11.18-10.15s-11.18,3.24-11.18,8.68c0,4.12,3.24,6.77,9.41,8.24l13.09,3.09c12.21,2.79,18.39,8.38,18.39,19.56,0,14.71-12.5,23.83-30.45,23.83s-29.57-9.71-29.57-23.98h17.06Z"/>
      <path class="cls-2" d="M420.08,109.44v-57.66h-13.97v-15h13.97V14.12h17.95v22.65h14.12v15h-14.12v57.66h-17.95Z"/>
      <path class="cls-2" d="M530.55,36.77v72.67h-16.62l-1.32-9.71c-4.41,6.91-13.83,11.62-23.54,11.62-16.77,0-26.62-11.33-26.62-29.12v-45.45h17.95v39.13c0,13.83,5.44,19.42,15.45,19.42,11.33,0,16.77-6.62,16.77-20.45v-38.1h17.95Z"/>
      <path class="cls-2" d="M543.34,73.4c0-22.65,13.24-38.83,35.16-38.83,10.15,0,19.12,4.27,23.68,11.47V0h17.8v109.44h-16.47l-1.18-11.33c-4.41,8.38-13.83,13.24-24.86,13.24-21.03,0-34.13-15.44-34.13-37.95ZM602.04,72.81c0-13.09-8.09-22.21-20.59-22.21s-20.15,9.27-20.15,22.21,7.65,22.06,20.15,22.06,20.59-8.97,20.59-22.06Z"/>
      <path class="cls-2" d="M636.6,11.33c0-6.03,4.85-10.74,11.03-10.74s10.74,4.71,10.74,10.74-4.85,10.89-10.74,10.89c-6.18,0-11.03-4.85-11.03-10.89ZM638.66,36.77h17.95v72.67h-17.95V36.77Z"/>
      <path class="cls-2" d="M709.7,34.71c22.51,0,38.83,15.59,38.83,38.24s-16.33,38.24-38.83,38.24-38.83-15.59-38.83-38.24,16.33-38.24,38.83-38.24ZM709.7,95.17c12.36,0,20.89-8.97,20.89-22.21s-8.53-22.21-20.89-22.21-20.89,8.97-20.89,22.21,8.53,22.21,20.89,22.21Z"/>
    </g>
  </g>
</svg>